<svg width="94" height="20" viewBox="0 0 94 20" fill="none" xmlns="http://www.w3.org/2000/svg">
<path d="M80.034 6.72902H75.9134V8.90379C76.0915 8.68334 76.3458 8.50529 76.6765 8.36963C77.0071 8.2255 77.359 8.15343 77.7321 8.15343C78.4104 8.15343 78.9657 8.30181 79.3981 8.59856C79.8305 8.89531 80.1442 9.27685 80.3393 9.74317C80.5343 10.201 80.6318 10.6928 80.6318 11.2185C80.6318 12.1935 80.352 12.9778 79.7924 13.5713C79.2413 14.1648 78.4528 14.4615 77.4268 14.4615C76.4603 14.4615 75.6887 14.2199 75.1122 13.7366C74.5356 13.2533 74.2092 12.6217 74.1329 11.8416H75.8625C75.9388 12.1808 76.1084 12.4521 76.3713 12.6556C76.6426 12.8591 76.986 12.9608 77.4014 12.9608C77.9016 12.9608 78.2789 12.804 78.5333 12.4903C78.7877 12.1765 78.9148 11.7611 78.9148 11.2439C78.9148 10.7182 78.7834 10.3197 78.5206 10.0484C78.2662 9.76861 77.8889 9.62871 77.3887 9.62871C77.0326 9.62871 76.7358 9.71774 76.4984 9.89579C76.261 10.0738 76.0915 10.3112 75.9897 10.608H74.2855V5.16471H80.034V6.72902ZM82.9789 14.5506C82.6567 14.5506 82.3897 14.4531 82.1777 14.258C81.9742 14.0546 81.8725 13.8044 81.8725 13.5077C81.8725 13.2109 81.9742 12.9651 82.1777 12.77C82.3897 12.5666 82.6567 12.4648 82.9789 12.4648C83.2926 12.4648 83.5512 12.5666 83.7547 12.77C83.9582 12.9651 84.0599 13.2109 84.0599 13.5077C84.0599 13.8044 83.9582 14.0546 83.7547 14.258C83.5512 14.4531 83.2926 14.5506 82.9789 14.5506ZM85.2906 9.70502C85.2906 8.23822 85.5534 7.08936 86.0791 6.25846C86.6133 5.42755 87.4951 5.0121 88.7245 5.0121C89.9539 5.0121 90.8314 5.42755 91.3571 6.25846C91.8912 7.08936 92.1583 8.23822 92.1583 9.70502C92.1583 11.1803 91.8912 12.3376 91.3571 13.177C90.8314 14.0164 89.9539 14.4361 88.7245 14.4361C87.4951 14.4361 86.6133 14.0164 86.0791 13.177C85.5534 12.3376 85.2906 11.1803 85.2906 9.70502ZM90.4032 9.70502C90.4032 9.0776 90.3608 8.55193 90.276 8.12799C90.1997 7.69558 90.0386 7.34372 89.7928 7.0724C89.5554 6.80109 89.1993 6.66543 88.7245 6.66543C88.2496 6.66543 87.8893 6.80109 87.6434 7.0724C87.406 7.34372 87.2449 7.69558 87.1601 8.12799C87.0838 8.55193 87.0457 9.0776 87.0457 9.70502C87.0457 10.3494 87.0838 10.892 87.1601 11.3329C87.2365 11.7653 87.3975 12.1172 87.6434 12.3885C87.8893 12.6513 88.2496 12.7828 88.7245 12.7828C89.1993 12.7828 89.5596 12.6513 89.8055 12.3885C90.0514 12.1172 90.2125 11.7653 90.2888 11.3329C90.3651 10.892 90.4032 10.3494 90.4032 9.70502Z" fill="black"/>
<g clip-path="url(#clip0_8_406)">
<path d="M10.8329 8.41608L7.41186 7.89352L5.87848 4.62739C5.76396 4.3835 5.3638 4.3835 5.24928 4.62739L3.71637 7.89352L0.295369 8.41608C0.0143821 8.4592 -0.0978273 8.80093 0.0992346 9.00263L2.58453 11.5501L1.99706 15.1514C1.95023 15.4375 2.25579 15.6522 2.50849 15.5117L5.56411 13.823L8.61973 15.5122C8.87012 15.6513 9.17846 15.4408 9.13116 15.1519L8.54369 11.5505L11.029 9.0031C11.226 8.80093 11.1134 8.4592 10.8329 8.41608Z" fill="#FFC107"/>
</g>
<g clip-path="url(#clip1_8_406)">
<path d="M25.1405 8.41608L21.7195 7.89352L20.1862 4.62739C20.0716 4.3835 19.6715 4.3835 19.557 4.62739L18.024 7.89352L14.603 8.41608C14.3221 8.4592 14.2099 8.80093 14.4069 9.00263L16.8922 11.5501L16.3047 15.1514C16.2579 15.4375 16.5635 15.6522 16.8162 15.5117L19.8718 13.823L22.9274 15.5122C23.1778 15.6513 23.4861 15.4408 23.4388 15.1519L22.8514 11.5505L25.3367 9.0031C25.5337 8.80093 25.4211 8.4592 25.1405 8.41608Z" fill="#FFC107"/>
</g>
<g clip-path="url(#clip2_8_406)">
<path d="M39.4483 8.41608L36.0273 7.89352L34.4939 4.62739C34.3794 4.3835 33.9792 4.3835 33.8647 4.62739L32.3318 7.89352L28.9108 8.41608C28.6298 8.4592 28.5176 8.80093 28.7147 9.00263L31.2 11.5501L30.6125 15.1514C30.5656 15.4375 30.8712 15.6522 31.1239 15.5117L34.1795 13.823L37.2351 15.5122C37.4855 15.6513 37.7939 15.4408 37.7466 15.1519L37.1591 11.5505L39.6444 9.0031C39.8415 8.80093 39.7288 8.4592 39.4483 8.41608Z" fill="#FFC107"/>
</g>
<g clip-path="url(#clip3_8_406)">
<path d="M53.7559 8.41608L50.335 7.89352L48.8016 4.62739C48.6871 4.3835 48.2869 4.3835 48.1724 4.62739L46.6395 7.89352L43.2185 8.41608C42.9375 8.4592 42.8253 8.80093 43.0223 9.00263L45.5076 11.5501L44.9202 15.1514C44.8733 15.4375 45.1789 15.6522 45.4316 15.5117L48.4872 13.823L51.5428 15.5122C51.7932 15.6513 52.1016 15.4408 52.0543 15.1519L51.4668 11.5505L53.9521 9.0031C54.1491 8.80093 54.0365 8.4592 53.7559 8.41608Z" fill="#FFC107"/>
</g>
<g clip-path="url(#clip4_8_406)">
<path d="M68.0636 8.41608L64.6426 7.89352L63.1093 4.62739C62.9947 4.3835 62.5946 4.3835 62.48 4.62739L60.9471 7.89352L57.5261 8.41608C57.2452 8.4592 57.1329 8.80093 57.33 9.00263L59.8153 11.5501L59.2278 15.1514C59.181 15.4375 59.4866 15.6522 59.7393 15.5117L62.7949 13.823L65.8505 15.5122C66.1009 15.6513 66.4092 15.4408 66.3619 15.1519L65.7745 11.5505L68.2598 9.0031C68.4568 8.80093 68.3442 8.4592 68.0636 8.41608Z" fill="#FFC107"/>
</g>
<defs>
<clipPath id="clip0_8_406">
<rect width="11.1282" height="11.1282" fill="white" transform="translate(0 4.4359)"/>
</clipPath>
<clipPath id="clip1_8_406">
<rect width="11.1282" height="11.1282" fill="white" transform="translate(14.3077 4.4359)"/>
</clipPath>
<clipPath id="clip2_8_406">
<rect width="11.1282" height="11.1282" fill="white" transform="translate(28.6154 4.4359)"/>
</clipPath>
<clipPath id="clip3_8_406">
<rect width="11.1282" height="11.1282" fill="white" transform="translate(42.9231 4.4359)"/>
</clipPath>
<clipPath id="clip4_8_406">
<rect width="11.1282" height="11.1282" fill="white" transform="translate(57.2308 4.4359)"/>
</clipPath>
</defs>
</svg>
